<?xml version="1.0" standalone="no"?>
<!DOCTYPE svg PUBLIC "-//W3C//DTD SVG 20010904//EN"
 "http://www.w3.org/TR/2001/REC-SVG-20010904/DTD/svg10.dtd">
<svg version="1.0" xmlns="http://www.w3.org/2000/svg"
 width="190.000000pt" height="265.000000pt" viewBox="0 0 190.000000 265.000000"
 preserveAspectRatio="xMidYMid meet">

<g transform="translate(0.000000,265.000000) scale(0.100000,-0.100000)"
fill="#000000" stroke="none">
<path d="M626 2620 c-176 -74 -326 -222 -399 -396 -79 -186 -68 -387 27 -531
19 -29 31 -53 26 -53 -20 0 -110 115 -131 168 -19 49 -23 80 -26 222 -2 91 -6
172 -9 180 -9 23 -41 -67 -60 -167 -19 -105 -15 -284 10 -378 40 -149 138
-283 241 -332 47 -21 48 -23 19 -23 -72 0 -198 97 -280 216 -21 30 -39 53 -40
51 -1 -1 5 -32 15 -68 24 -89 92 -224 141 -281 68 -78 217 -165 318 -184 56
-11 46 -24 -20 -24 -57 0 -117 16 -243 65 -38 15 110 -96 183 -136 134 -75
273 -99 367 -63 80 31 77 31 69 -12 -13 -74 -55 -188 -85 -231 -16 -25 -26
-49 -23 -55 4 -5 9 -33 13 -62 l7 -51 43 84 c23 45 44 81 47 78 6 -6 -19 -105
-53 -213 l-26 -80 35 -46 c32 -41 58 -91 84 -156 6 -15 9 25 10 120 0 140 11
265 21 255 11 -11 33 -209 40 -347 8 -170 17 -153 27 50 6 138 18 245 33 300
5 22 7 19 14 -20 4 -25 11 -120 15 -212 l7 -167 31 77 c17 42 45 97 63 122
l31 45 -23 46 c-42 82 -84 229 -66 229 5 0 26 -34 48 -75 21 -41 41 -75 44
-75 3 0 9 27 13 61 5 56 4 64 -25 105 -47 69 -78 143 -85 208 -7 56 -6 59 12
51 131 -54 266 -44 422 31 70 34 172 118 172 142 0 6 -33 -4 -73 -23 -89 -41
-151 -57 -203 -53 l-39 3 55 18 c210 67 382 234 441 429 11 36 19 79 17 94 -3
26 -3 26 -35 -18 -84 -118 -194 -211 -263 -224 -34 -7 -33 -5 27 39 164 122
293 367 293 555 0 69 -26 167 -62 234 -17 32 -34 58 -37 58 -3 0 -4 -25 -2
-57 4 -75 -16 -232 -39 -296 -20 -57 -33 -83 -70 -139 -38 -58 -51 -53 -24 9
49 111 67 199 68 328 0 154 -27 248 -106 371 -63 99 -211 192 -339 213 -108
18 -122 14 -58 -18 151 -75 240 -174 275 -306 42 -156 -18 -343 -154 -479 -35
-35 -90 -79 -123 -97 -52 -30 -61 -40 -79 -89 -32 -86 -41 -100 -66 -100 -26
0 -29 11 -39 138 -5 68 -3 77 30 145 33 69 62 189 34 142 -22 -38 -73 -85 -91
-85 -30 0 -91 -29 -122 -58 -27 -25 -76 -118 -76 -144 0 -6 16 7 36 30 35 41
64 54 64 30 0 -7 -14 -55 -31 -105 -38 -116 -52 -120 -109 -32 -22 34 -42 68
-45 77 -3 10 -43 34 -90 56 -257 117 -331 381 -181 646 40 71 125 167 196 220
25 18 49 37 55 42 18 16 -21 6 -89 -22z"/>
</g>
</svg>
